<?xml version="1.0" standalone="no"?>
<!DOCTYPE svg PUBLIC "-//W3C//DTD SVG 1.1//EN" "http://www.w3.org/Graphics/SVG/1.1/DTD/svg11.dtd" >
<svg xmlns="http://www.w3.org/2000/svg">
<metadata></metadata>
<defs>
<font id="lifestyle_marker_m54regular" horiz-adv-x="180" >
<font-face units-per-em="2048" ascent="1638" descent="-410" />
<missing-glyph horiz-adv-x="700" />
<glyph horiz-adv-x="2048" />
<glyph horiz-adv-x="2048" />
<glyph unicode="&#xd;" />
<glyph unicode=" "  horiz-adv-x="700" />
<glyph unicode="&#x09;" horiz-adv-x="700" />
<glyph unicode="&#xa0;" horiz-adv-x="700" />
<glyph unicode="!" />
<glyph unicode="&#x22;" />
<glyph unicode="#" />
<glyph unicode="$" />
<glyph unicode="%" />
<glyph unicode="&#x26;" />
<glyph unicode="'" />
<glyph unicode="(" />
<glyph unicode=")" />
<glyph unicode="*" />
<glyph unicode="+" />
<glyph unicode="," horiz-adv-x="527" d="M90 145q0 14 3 31q11 70 70 113q45 32 101 32q19 0 29 -1q71 -13 111 -70q33 -50 33 -106q0 -17 -1 -24q-10 -85 -71 -169t-200 -142q19 45 46 93q23 41 25 77q-72 11 -113 69q-33 43 -33 97z" />
<glyph unicode="-" horiz-adv-x="1048" d="M90 575v127q0 59 42 101t102 42h673q51 0 51 -51v-127q0 -60 -42 -102t-101 -42h-674q-51 0 -51 52z" />
<glyph unicode="." horiz-adv-x="528" d="M90 149q0 70 51 123q51 51 123 51t123 -51q51 -55 51 -123q0 -71 -51 -123q-51 -49 -123 -49q-73 0 -123 49q-51 51 -51 123z" />
<glyph unicode="/" />
<glyph unicode="0" horiz-adv-x="1684" d="M90 877v28q0 324 181 570q102 138 251 221q147 81 319 81q160 0 298 -70q139 -72 239 -193q101 -124 158 -287q58 -164 58 -350q0 -290 -139 -523q-101 -173 -262 -275q-160 -102 -352 -102t-347 102q-160 102 -260 275q-138 232 -144 523zM423 877q0 -219 94 -380 q57 -100 141 -157q86 -59 183 -59q108 0 200 69q91 68 147 182q75 147 75 335v10q-6 213 -90 368q-59 103 -144 165q-88 62 -188 62q-103 0 -190 -65q-88 -66 -145 -174q-83 -153 -83 -356z" />
<glyph unicode="1" horiz-adv-x="622" d="M90 1478v220q0 52 51 52h247q59 0 101.5 -42.5t42.5 -101.5v-1553q0 -51 -52 -51h-219q-52 0 -52 51v1374h-68q-51 0 -51 51z" />
<glyph unicode="2" horiz-adv-x="1359" d="M92 1280v6q13 190 123 313q87 94 217 138q118 40 260 40h13q112 0 211 -31q137 -42 222 -132q91 -100 106 -248q2 -22 2 -43q0 -41 -8 -79q-12 -64 -43 -125q-44 -82 -119 -152q-67 -67 -128 -125q-31 -30 -62 -59t-61 -56q-62 -60 -129 -120q-33 -31 -67.5 -62.5 t-69.5 -63.5q-29 -28 -56 -61q-25 -35 -25 -94h481v53q0 52 52 52h206q52 0 52 -52v-234q0 -60 -42.5 -101.5t-101.5 -41.5h-979q-51 0 -51 51v268q0 88 59 171q55 81 164 182q37 34 78 73t85 84q97 95 169 158q75 67 185 185q30 30 57 67.5t27 82.5q0 100 -101 149 q-60 27 -130 27q-129 0 -200 -67q-59 -58 -69 -156q-6 -46 -51 -46h-225q-24 0 -38 16q-13 13 -13 33z" />
<glyph unicode="3" horiz-adv-x="1431" d="M94 381q0 17 11 32q17 19 40 19h246q28 0 45 -26q42 -73 99 -104q66 -39 173 -43h18q118 0 203 61q102 73 102 197q0 5 -0.5 11.5t-0.5 13.5q-14 142 -116 228q-84 71 -207 100q-71 17 -158 17q-37 0 -74 -3v81l407 462h-399v-52q0 -51 -52 -51h-206q-52 0 -52 51v231 q0 59 42 101.5t102 42.5h891q52 0 52 -52v-280q0 -19 -13 -35l-286 -317q94 -12 173 -64q118 -83 174 -245q33 -104 33 -214q0 -23 -2 -69q-22 -236 -179 -362q-95 -77 -209 -104q-118 -27 -237 -29q-110 0 -211 20q-107 19 -195 72q-168 97 -213 298q-1 6 -1 12z" />
<glyph unicode="4" horiz-adv-x="1595" d="M90 1478v220q0 52 51 52h234q59 0 101.5 -42.5t42.5 -101.5v-730h545v730q0 59 41.5 101.5t101.5 42.5h247q51 0 51 -52v-220q0 -51 -51 -51h-69v-551h69q51 0 51 -51v-222q0 -51 -51 -51h-69v-499q0 -51 -51 -51h-219q-51 0 -51 51v499h-817q-21 0 -37 16q-15 13 -15 35 l1 824h-55q-51 0 -51 51z" />
<glyph unicode="5" horiz-adv-x="1480" d="M95 380q0 15 11 30q16 21 41 21h255q29 0 44 -26q43 -76 124 -108q77 -31 151 -31q14 0 44 2q126 13 213 90q86 78 92 227v16q0 134 -90 203q-97 71 -221 71q-168 -2 -279 -106q-15 -14 -33 -14q-4 0 -9 1l-209 29q-45 6 -45 51v862q0 52 52 52h892q59 0 101 -42.5 t42 -101.5v-282h-322v103h-455v-307q100 27 209 43q70 7 115 7q30 0 82 -4q236 -26 363 -172q124 -148 127 -402v-6q0 -263 -153 -420q-165 -170 -486 -187q-16 -1 -47 -1q-112 0 -217 22q-134 27 -234 117q-57 52 -107 136q-31 53 -48 112q-3 8 -3 15z" />
<glyph unicode="6" horiz-adv-x="1476" d="M90 783q0 10 0.5 21.5t0.5 23.5q3 106 24 217q39 213 138 375q103 169 256 258q144 81 327 96q37 3 79 3q106 0 226 -21q31 -7 40 -37l52 -188q2 -8 2 -15q0 -19 -14 -33q-16 -17 -38 -17q-5 0 -10 1q-125 27 -232 27q-51 0 -99 -6q-111 -16 -194 -68q-66 -43 -116 -117 q-50 -72 -65 -140q77 47 174 76q81 24 167 24q21 0 31 -2q118 -5 226 -62q104 -57 178 -146q140 -166 143 -380v-7q0 -154 -54 -293q-69 -170 -204 -273q-161 -123 -386 -123q-208 0 -356 110q-117 87 -188 225q-78 145 -99 324q-9 67 -9 147zM436 630q0 -147 96 -249 q95 -103 228 -103q132 0 229 101q96 99 100 240v11q0 118 -55 203q-82 123 -247 131q-7 1 -21 1q-126 0 -219 -81q-111 -96 -111 -254z" />
<glyph unicode="7" horiz-adv-x="1395" d="M90 1375v231q0 59 42 101.5t101 42.5h971q43 0 50 -42l48 -262q1 -5 1 -10q0 -14 -7 -25q-221 -386 -360 -720q-148 -349 -233 -677q-11 -37 -50 -37h-243q-26 0 -41 20q-10 12 -10 28q0 8 2 17q27 90 55 177.5t58 172.5q67 194 153 395q140 325 327 640h-555v-52 q0 -51 -51 -51h-207q-51 0 -51 51z" />
<glyph unicode="8" horiz-adv-x="1404" d="M90 552q0 242 184 412q31 28 52 44q-116 129 -116 302q0 193 148 334q140 133 345 133q199 0 343 -133q149 -140 149 -334q0 -173 -117 -302q12 -11 25.5 -21.5t27.5 -22.5q183 -170 183 -412q0 -240 -183 -411q-178 -163 -428 -163q-253 0 -429 163q-184 170 -184 411z M395 552q0 -123 93 -201q88 -75 215 -75q122 0 210 76q93 81 93 200q0 113 -83 192q-90 87 -220 87q-123 0 -213 -77q-95 -81 -95 -202zM507 1278q0 -78 60 -132q60 -57 141 -57h3q78 0 135 57t57 138q-2 78 -58 135q-57 55 -136 55q-81 0 -141 -58q-61 -56 -61 -135v-3z " />
<glyph unicode="9" horiz-adv-x="1474" d="M90 1082v13q0 189 84 351q95 181 277 271q127 60 281 60q196 0 345 -102q126 -93 206 -243q70 -144 93 -315q8 -64 8 -145q0 -90 -9 -158q-20 -185 -80 -333q-65 -166 -175 -282q-150 -158 -363 -202q-93 -19 -198 -19q-104 0 -225 20q-32 4 -41 36l-51 188q-2 8 -2 15 q0 18 14 34q15 16 38 16q5 0 10 -1q117 -26 230 -26q46 0 101 5q106 13 195 68q67 45 115 116q50 76 65 141q-132 -83 -285 -97q-40 -2 -58 -2q-130 0 -237 55q-141 66 -225 190q-59 78 -86 171q-27 91 -27 175zM387 1119q0 -118 55 -198q81 -125 246 -131q7 -1 21 -1 q147 0 242 103q88 93 88 231q0 122 -74 224q-101 129 -250 129q-151 0 -250 -125q-77 -98 -78 -216v-16z" />
<glyph unicode=":" />
<glyph unicode=";" />
<glyph unicode="&#x3c;" />
<glyph unicode="=" />
<glyph unicode="&#x3e;" />
<glyph unicode="?" />
<glyph unicode="@" horiz-adv-x="2683" d="M90 632q0 259 104.5 487t284.5 399q178 168 417 266t511 98q480 0 807.5 -280.5t360.5 -712.5q3 -48 3 -95q0 -193 -60 -353q-75 -199 -219.5 -317t-348.5 -140q-37 -5 -76 -5q-172 0 -367 82q-164 -93 -315 -93q-138 0 -266 77q-257 156 -257 527v31q10 384 252.5 568 t593.5 193q60 1 121 1h60q91 -1 182 -1q51 0 51 -50l3 -219q0 -22 -14 -37q-15 -15 -37 -15h-53v-790q68 -24 129 -24q145 0 251 136q121 154 121 394q0 58 -7 122q-41 350 -298 545t-617 195q-221 0 -414 -78.5t-336 -213.5t-225 -314t-82 -383q0 -205 82 -385t225 -313 q143 -135 336 -213.5t414 -78.5q219 0 412 78.5t337 213.5q17 17 26 25q15 15 36 15h209q32 0 46 -28q5 -11 5 -22q0 -16 -11 -32q-63 -81 -133 -146q-179 -168 -418 -266t-509 -98q-272 0 -511 98t-417 266q-180 170 -284.5 397.5t-104.5 488.5zM996 614q0 -16 1 -33 q5 -128 64.5 -191.5t140.5 -72.5q14 -2 29 -2q66 0 136 34q84 40 140 120v574q-225 -15 -373 -115q-138 -94 -138 -314z" />
<glyph unicode="A" horiz-adv-x="1643" d="M90 53v221q0 52 51 52h53l439 1388q12 36 49 36h255q37 0 49 -35l462 -1389h54q51 0 51 -52v-221q0 -51 -51 -51h-187q-105 0 -136 98l-122 371h-480l-117 -369q-32 -100 -137 -100h-182q-51 0 -51 51zM679 795h273l-139 424z" />
<glyph unicode="B" horiz-adv-x="1456" d="M90 53v221q0 52 52 52h52v1103h-52q-52 0 -52 51v218q0 52 52 52h552q96 0 190 -13q97 -12 183 -60q77 -48 126 -122q62 -97 77 -207q5 -39 5 -68q0 -78 -24 -151q-35 -108 -120 -199q99 -38 170 -147q65 -102 65 -247v-25q-5 -90 -29 -166q-33 -96 -89 -159 q-72 -87 -182 -135q-112 -49 -241 -49h-683q-52 0 -52 51zM516 326h318q78 0 137 57q58 58 58 139q0 94 -62 143q-61 50 -136 50h-315v-389zM516 1037h244q79 0 135 64q56 65 56 140q0 81 -61 134q-63 52 -143 52h-231v-390z" />
<glyph unicode="C" horiz-adv-x="1711" d="M90 878q0 372 272 636q270 263 657 263q82 0 174 -14.5t178 -46.5q81 -33 140 -73q21 -15 21 -42v-226q0 -51 -51 -51h-218q-51 0 -51 51v52q-92 31 -193 31q-234 0 -412 -168q-175 -170 -175 -412q0 -246 175 -412q175 -168 412 -168q221 0 384 142q15 13 33 13 q4 0 8 -1q25 -5 36 -25l117 -198q9 -15 9 -29q0 -21 -22 -38q-104 -77 -240 -128q-152 -55 -325 -55q-387 0 -657 262q-272 263 -272 637z" />
<glyph unicode="D" horiz-adv-x="1456" d="M90 53v221q0 52 51 52h54v1101h-54q-51 0 -51 51v220q0 52 51 52h375q409 -18 631 -270q219 -252 219 -598v-6q-4 -352 -200 -613q-199 -261 -650 -261h-375q-51 0 -51 51zM516 326q11 -1 33 -1q233 0 361 147q133 156 133 397v7q-4 275 -141 416q-132 135 -366 135h-20 v-1101z" />
<glyph unicode="E" horiz-adv-x="1455" d="M90 1480v218q0 52 51 52h1081q59 0 101 -42.5t42 -101.5v-231q0 -51 -51 -51h-206q-52 0 -52 51v54h-538v-392h487q51 0 51 -51v-220q0 -51 -51 -51h-487v-389h538v53q0 52 52 52h206q51 0 51 -52v-234q0 -60 -42 -101.5t-101 -41.5h-884q-60 0 -102 41.5t-42 101.5v1284 h-53q-51 0 -51 51z" />
<glyph unicode="F" horiz-adv-x="1454" d="M90 1480v218q0 52 51 52h1080q59 0 101 -42.5t42 -101.5v-282h-309v105h-537v-392h486q51 0 51 -51v-220q0 -51 -51 -51h-486v-662q0 -51 -51 -51h-222q-52 0 -52 51v1376h-52q-51 0 -51 51z" />
<glyph unicode="G" horiz-adv-x="1623" d="M90 878q0 379 278 639q276 260 650 260q170 0 320 -50q99 -34 173 -84q22 -15 22 -42v-226q0 -51 -51 -51h-221q-52 0 -52 51v52q-90 31 -191 31q-234 0 -411 -168q-175 -170 -175 -412q0 -246 175 -412q173 -168 411 -168q102 0 191 32v221l-75 1q-50 0 -50 51v222 q0 51 51 51h255q59 0 101 -42t42 -101v-578q0 -29 -24 -44q-59 -34 -103 -53q-179 -79 -388 -79q-373 0 -650 258q-278 261 -278 641z" />
<glyph unicode="H" horiz-adv-x="1769" d="M90 1478v220q0 52 51 52h234q58 0 100.5 -42.5t42.5 -101.5v-569h721v569q0 59 41.5 101.5t101.5 42.5h246q51 0 51 -52v-220q0 -51 -51 -51h-69v-1374q0 -51 -51 -51h-218q-51 0 -51 51v662h-721v-662q0 -51 -51 -51h-221q-21 0 -36 15t-15 36l2 1374h-56q-51 0 -51 51z " />
<glyph unicode="I" horiz-adv-x="739" d="M90 53v221q0 52 51 52h67v1101h-67q-51 0 -51 51v220q0 52 51 52h457q51 0 51 -52v-220q0 -51 -51 -51h-67v-1101h67q51 0 51 -52v-221q0 -51 -51 -51h-457q-51 0 -51 51z" />
<glyph unicode="J" horiz-adv-x="952" d="M102 160q0 14 9 28l105 181q12 22 36 25q4 1 8 1q18 0 34 -13q12 -11 27 -24q51 -44 98 -66q31 -18 65 -18q13 0 20 2q37 7 37 88v1063h-67q-51 0 -51 51l-2 219q0 20 15 37q15 15 36 15h247q59 0 101 -42q42 -41 42 -101v-1242q0 -217 -96 -302t-280 -85q-95 0 -199 37 q-89 32 -168 112q-17 16 -17 34z" />
<glyph unicode="K" horiz-adv-x="1471" d="M90 1480v218q0 52 51 52h234q60 0 102 -42.5t42 -101.5v-499l481 623q15 20 41 20h280q31 0 46 -29q6 -12 6 -23q0 -16 -12 -31l-620 -797l619 -785q12 -15 12 -31q0 -11 -6 -23q-14 -29 -46 -29h-281q-25 0 -41 19l-479 613v-581q0 -51 -51 -51h-222q-52 0 -52 51v1376 h-53q-51 0 -51 51z" />
<glyph unicode="L" horiz-adv-x="1454" d="M90 1478v220q0 52 51 52h233q59 0 101 -42.5t42 -101.5v-1283h538v53q0 52 52 52h206q51 0 51 -52v-231q0 -60 -42 -101.5t-101 -41.5h-884q-60 0 -102 41.5t-42 101.5v1282h-52q-51 0 -51 51z" />
<glyph unicode="M" horiz-adv-x="2049" d="M90 53v221q0 52 51 52h52l102 1376q3 48 51 48h266q35 0 47 -33l366 -921l364 921q13 33 48 33h265q48 0 52 -48l101 -1376h53q51 0 51 -52v-221q0 -51 -51 -51h-221q-57 0 -98 37.5t-44 94.5l-69 924l-277 -700q-13 -32 -48 -32h-254q-34 0 -48 32l-278 700l-67 -923 q-4 -57 -45.5 -95t-97.5 -38h-220q-51 0 -51 51z" />
<glyph unicode="N" horiz-adv-x="1744" d="M90 53v221q0 52 52 52h52v1372q0 52 51 52h245q28 0 44 -25l686 -1109v990q0 59 41.5 101.5t101.5 42.5h240q51 0 51 -52v-220q0 -51 -51 -51h-58v-1374q0 -51 -51 -51h-246q-30 0 -43 24l-687 1109v-990q0 -60 -42 -101.5t-101 -41.5h-233q-52 0 -52 51z" />
<glyph unicode="O" horiz-adv-x="2039" d="M90 876q0 371 272 636q269 264 657 264q387 0 657 -264q273 -264 273 -636q0 -373 -273 -637q-270 -262 -657 -262q-388 0 -657 262q-272 264 -272 637zM431 876q0 -244 176 -413q177 -168 412 -168q233 0 412 168q176 169 176 413q0 242 -176 411q-179 169 -412 169 q-236 0 -412 -169t-176 -411z" />
<glyph unicode="P" horiz-adv-x="1449" d="M90 1478v220q0 52 51 52h689q60 0 126 -18q89 -27 170 -80q75 -57 124 -118q53 -74 79 -151q30 -90 30 -193v-12q-2 -99 -26 -180q-26 -84 -68 -147q-60 -88 -147 -139q-56 -36 -129 -58q-72 -20 -153 -20h-320v-581q0 -51 -51 -51h-220q-51 0 -51 51v1374h-53 q-51 0 -51 51zM516 958h320q85 0 147 63q63 63 63 157q0 98 -66 173q-66 76 -155 76h-309v-469z" />
<glyph unicode="Q" horiz-adv-x="2038" d="M90 876q0 371 272 636q269 264 658 264q384 0 656 -264t272 -636q0 -294 -176 -529l131 -116q15 -14 17 -35v-3q0 -19 -13 -35l-148 -163q-18 -20 -37 -20q-17 0 -35 17l-152 134q-231 -149 -515 -149q-389 0 -658 262q-272 264 -272 637zM432 876q0 -244 175 -413 q177 -168 413 -168q132 0 259 61l-101 90q-16 14 -17 36v5q0 18 13 32l148 165q18 19 37 19q17 0 35 -16l127 -112q86 140 86 301q0 243 -176 411q-177 169 -411 169q-237 0 -413 -169q-175 -168 -175 -411z" />
<glyph unicode="R" horiz-adv-x="1560" d="M90 1478v220q0 52 51 52h690q71 0 149 -18q110 -30 199 -95q86 -66 136 -162q50 -105 50 -236v-10q-2 -108 -37 -196q-35 -82 -94 -143q-52 -54 -118 -93l249 -471h53q52 0 52 -52v-221q0 -51 -52 -51h-218q-32 0 -46 27l-356 686h-282v-662q0 -51 -51 -51h-220 q-51 0 -51 51v1374h-53q-51 0 -51 51zM516 1037h314q74 0 137 49q62 49 62 143q0 80 -60 139q-58 59 -139 59h-314v-390z" />
<glyph unicode="S" horiz-adv-x="1447" d="M94 195q0 14 8 27l122 189q11 17 32 22q5 1 10 1q14 0 29 -8q118 -78 266 -114q29 -8 83 -18q47 -7 98 -7q54 0 97 10q160 34 160 166v4q-4 78 -77 132q-74 54 -135 90q-50 27 -99.5 52.5t-98.5 51.5q-33 18 -99 52q-25 12 -49.5 26t-48.5 28q-140 77 -212 189 q-57 90 -57 192q0 12 1 19q4 145 95 262q82 106 219 165q111 45 242 49q14 1 39 1q130 0 253 -28q84 -20 177 -57q51 -20 121 -54q29 -15 29 -46v-216q-2 -51 -52 -51h-220q-51 0 -51 51v52q-78 33 -165 48q-41 6 -79 6q-42 0 -88 -8q-169 -32 -169 -147v-8q1 -49 36 -80 q34 -33 75 -57q54 -37 134 -79q80 -44 148 -78q66 -36 112 -63q27 -17 54 -33t53 -33q149 -99 214 -204q56 -96 56 -220v-35q-14 -165 -113 -275q-85 -94 -221 -140q-81 -26 -168 -37q-74 -8 -131 -8q-23 0 -35 1q-181 8 -342 66q-126 42 -230 107q-18 11 -22 33q-1 6 -1 12 z" />
<glyph unicode="T" horiz-adv-x="1576" d="M90 1375v231q0 59 41.5 101.5t101.5 42.5h1109q60 0 102 -42.5t42 -101.5v-231q0 -51 -51 -51h-218q-52 0 -52 51v52h-217v-1374q0 -51 -51 -51h-218q-52 0 -52 51v1374h-216v-52q0 -51 -51 -51h-219q-51 0 -51 51z" />
<glyph unicode="U" horiz-adv-x="1702" d="M90 1478v220q0 52 51 52h231q59 0 101.5 -42.5t42.5 -101.5v-941q0 -116 37 -200q36 -81 105 -124q80 -52 195 -52t192 53q75 49 111 145q28 76 28 178v941q0 59 42 101.5t102 42.5h233q51 0 51 -52v-220q0 -51 -51 -51h-55l1 -762v-11q0 -83 -16 -174q-20 -102 -59 -178 q-50 -105 -133 -177q-92 -78 -204 -111q-116 -34 -248 -34q-123 0 -229 29q-97 27 -170 79q-87 61 -147 155q-52 82 -78 181q-29 109 -29 241v762h-53q-51 0 -51 51z" />
<glyph unicode="V" horiz-adv-x="1643" d="M90 1478v220q0 52 52 52h182q105 0 137 -100l353 -1116l364 1117q33 99 137 99h186q52 0 52 -52v-220q0 -51 -52 -51h-52l-463 -1390q-12 -35 -48 -35h-255q-38 0 -49 35l-439 1390h-53q-52 0 -52 51z" />
<glyph unicode="W" horiz-adv-x="2402" d="M90 1478v220q0 52 51 52h191q110 0 139 -107l267 -1011l285 1079q10 39 50 39h256q40 0 49 -39l287 -1077l264 1009q28 107 139 107h193q51 0 51 -52v-220q0 -51 -51 -51h-54l-366 -1387q-10 -38 -49 -38h-256q-41 0 -49 38l-285 1076l-285 -1074q-10 -38 -49 -38 l-257 -2q-40 0 -49 38l-367 1387h-54q-51 0 -51 51z" />
<glyph unicode="X" horiz-adv-x="1654" d="M98 53q0 14 10 28l525 794l-363 552h-55q-51 0 -51 51v220q0 52 51 52h151q76 0 120 -65l341 -516l370 558q15 23 43 23h265q30 0 45 -27q7 -13 7 -25q0 -14 -9 -28l-527 -794l364 -550h53q51 0 51 -52v-221q0 -51 -51 -51h-150q-78 0 -120 64l-341 517l-369 -559 q-16 -22 -42 -22h-265q-32 0 -45 27q-8 12 -8 24z" />
<glyph unicode="Y" horiz-adv-x="1537" d="M90 1478v220q0 52 51 52h150q78 0 120 -65l357 -541l358 541q41 65 120 65h150q51 0 51 -52v-220q0 -51 -51 -51h-53l-413 -624v-750q0 -51 -51 -51h-222q-51 0 -51 51v750l-412 624h-53q-51 0 -51 51z" />
<glyph unicode="Z" horiz-adv-x="1430" d="M90 1375v231q0 59 42 101.5t102 42.5h1048q28 0 43 -25q8 -14 8 -27q0 -12 -6 -23l-129 -248l-574 -1101h602q51 0 51 -52v-221q0 -51 -51 -51h-1050q-31 0 -44 24q-8 13 -8 27q0 11 6 23l703 1353h-418v-54q0 -51 -52 -51h-221q-52 0 -52 51z" />
<glyph unicode="[" />
<glyph unicode="\" />
<glyph unicode="]" />
<glyph unicode="^" />
<glyph unicode="_" />
<glyph unicode="`" />
<glyph unicode="a" horiz-adv-x="1420" d="M90 323q0 32 4 59q13 112 78 195q53 67 131 112q106 60 241 109q108 41 185 64q45 15 91.5 31t91.5 32q0 85 -31 127q-31 41 -79 56q-38 10 -76 10q-63 0 -127 -29q-99 -44 -137 -130q-14 -32 -42 -32q-9 0 -19 3l-200 58q-24 7 -33 30q-4 9 -4 19q0 12 6 24 q61 115 164 194q82 62 179 96q85 30 173 39q30 3 58 3q67 0 137 -13q132 -27 220 -106q118 -112 124 -312l1 -639h52q52 0 52 -52v-218q0 -51 -52 -51h-313q-51 0 -51 51v9q-85 -41 -185 -62q-111 -23 -221 -27h-17q-115 0 -204 38q-114 51 -162 153q-35 71 -35 159z M395 341q1 -41 33 -59t64 -20q12 -2 38 -2q71 0 157 29q66 20 119 51q108 58 108 113v144q-20 -7 -97 -26q-53 -15 -136 -39q-106 -35 -187 -73q-42 -26 -66 -44q-33 -27 -33 -68v-6z" />
<glyph unicode="b" horiz-adv-x="1443" d="M90 53v218q0 52 51 52h53v1106h-53q-51 0 -51 51v218q0 52 51 52h231q59 0 101.5 -42.5t42.5 -101.5v-302q159 91 316 91h11q209 -5 349 -153q79 -88 121 -204q40 -115 40 -249v-26q-5 -129 -36 -234q-40 -136 -126 -242q-66 -81 -159 -141q-99 -65 -225 -100 q-135 -40 -299 -43q-37 -1 -223 -1h-144q-51 0 -51 51zM516 323q181 11 296 69q130 60 180 183q34 76 34 187v23q-7 122 -66 190q-60 69 -161 74h-6q-74 0 -148 -38q-78 -38 -129 -114v-574z" />
<glyph unicode="c" horiz-adv-x="1409" d="M90 682l1 1v2q0 293 214 500q166 162 399 198q68 10 123 10q89 0 178 -21q68 -17 133 -47q41 -20 84 -50q21 -15 21 -41v-207q0 -51 -51 -51h-217q-51 0 -51 51v35l-36 7q-36 6 -70 6q-138 0 -251 -92q-141 -117 -141 -298q0 -235 212 -345q92 -50 187 -50q113 0 224 75 q26 18 51 43l1 1q15 15 35 15h7q25 -3 38 -25l116 -196q8 -15 8 -28q0 -21 -21 -38q-9 -8 -27 -22q-34 -25 -69 -43q-170 -95 -362 -95q-42 0 -97 5q-247 29 -424 201q-215 207 -215 499z" />
<glyph unicode="d" horiz-adv-x="1442" d="M90 581v27q4 177 66 322q52 121 153 219q108 101 263 158q157 57 355 62v240q0 60 42 102t102 42h229q52 0 52 -51v-222q0 -51 -52 -51h-50v-1106h50q52 0 52 -52v-218q0 -51 -52 -51h-321q-52 0 -52 51v13q-158 -89 -322 -89h-4q-166 5 -286 95q-110 79 -168 215 q-57 129 -57 294zM417 614q0 -18 1 -28q5 -137 73 -199q64 -63 152 -66h12q71 0 143 37q79 40 129 115v574q-156 -13 -254 -50q-153 -59 -213 -182q-43 -85 -43 -201z" />
<glyph unicode="e" horiz-adv-x="1493" d="M90 685q0 244 148 440q91 121 224 194q134 74 295 74q136 0 270 -56q131 -56 224 -168q86 -109 127 -264q25 -95 25 -212q0 -48 -5 -114q-6 -46 -51 -46h-890q45 -108 144 -173q100 -67 219 -67q167 0 280 114q14 15 35 15h7q25 -3 38 -25l116 -196q8 -15 8 -28 q0 -21 -21 -38q-199 -158 -463 -158q-157 0 -292 58q-138 58 -236 161q-97 96 -148 220q-54 124 -54 269zM457 836h617q-28 113 -95 171q-81 67 -226 67q-108 0 -184 -60q-80 -63 -112 -178z" />
<glyph unicode="f" horiz-adv-x="1045" d="M90 793v201q0 51 51 51h54v343q0 203 105 302q93 86 261 86q94 0 198 -42q82 -35 166 -109q18 -17 18 -37q0 -13 -8 -27l-80 -137q-11 -21 -34 -25q-6 -1 -12 -1q-16 0 -29 11q-4 2 -45 32q-66 42 -121 50q-4 0 -7.5 0.5t-6.5 0.5q-80 0 -84 -104v-343h147q52 0 52 -51 v-201q0 -52 -52 -52h-147v-688q0 -51 -51 -51h-219q-51 0 -51 51v688h-54q-51 0 -51 52z" />
<glyph unicode="g" horiz-adv-x="1443" d="M90 572q0 20 1 31q4 180 68 321q56 131 171 230q123 108 309 164q130 38 297 45q81 4 185 4h23q39 -1 79 -1h79q51 0 51 -51v-222q0 -51 -51 -51h-52v-1127q-5 -99 -72 -198q-77 -104 -215 -163q-153 -66 -327 -66q-76 0 -154 12q-138 23 -250 81q-28 14 -28 45v201 q0 29 25 44q12 8 25 8q12 0 25 -7q76 -39 152 -58q85 -25 179 -25q21 0 32 1q153 8 240 74q47 35 47 75v123q-154 -86 -329 -90q-157 0 -280 87q-120 85 -178 234q-52 124 -52 279zM418 615q0 -23 1 -33q4 -121 63 -189q64 -76 170 -76h13q162 5 264 153v572 q-100 -7 -169 -22q-140 -34 -221 -106q-62 -53 -93 -136q-28 -71 -28 -163z" />
<glyph unicode="h" horiz-adv-x="1503" d="M90 53v218q0 52 51 52h53v1107h-53q-51 0 -51 51v217q0 52 51 52h232q58 0 100.5 -42.5t42.5 -101.5v-317q171 98 365 103h5q175 0 289 -85q137 -103 137 -298v-686h50q51 0 51 -52v-218q0 -51 -51 -51h-371v926q0 114 -118 136q-28 4 -44 4q-58 0 -124 -24 q-128 -44 -189 -133v-909h-375q-51 0 -51 51z" />
<glyph unicode="i" horiz-adv-x="705" d="M90 53v218q0 52 51 52h54v722h-54q-51 0 -51 51v220q0 51 51 51h231q59 0 101.5 -42t42.5 -102v-900h48q51 0 51 -52v-218q0 -51 -51 -51h-423q-51 0 -51 51zM195 1506v219q0 51 51 51h219q51 0 51 -51v-127q0 -60 -42.5 -101.5t-101.5 -41.5h-126q-51 0 -51 51z" />
<glyph unicode="j" horiz-adv-x="941" d="M103 -220q0 13 9 28l79 138q11 21 34 25q6 1 11 1q16 0 30 -10q13 -10 30 -21q49 -35 102 -52q23 -9 50 -9q24 0 40 8q39 16 41 93v1064h-47q-51 0 -51 51v220q0 51 51 51h226q59 0 101 -42t42 -102v-1242q0 -201 -100 -294q-99 -93 -266 -93q-95 0 -197 42 q-84 34 -167 109q-18 16 -18 35zM529 1506v219q0 51 51 51h220q51 0 51 -51v-127q0 -60 -42 -101.5t-101 -41.5h-128q-51 0 -51 51z" />
<glyph unicode="k" horiz-adv-x="1442" d="M90 1480v218q0 52 51 52h233q59 0 101.5 -42.5t42.5 -101.5v-517l290 265q16 13 34 13h328q34 0 48 -33q4 -10 4 -20q0 -20 -17 -36l-410 -373l539 -824q10 -14 10 -28q0 -12 -8 -24q-14 -27 -44 -27h-265q-28 0 -43 23l-431 659l-35 -33v-598q0 -51 -51 -51h-223 q-51 0 -51 51v1376h-52q-51 0 -51 51z" />
<glyph unicode="l" horiz-adv-x="706" d="M90 1480v218q0 52 51 52h231q59 0 101 -42.5t42 -101.5v-1283h50q51 0 51 -52v-218q0 -51 -51 -51h-227q-60 0 -102 41.5t-42 101.5v1284h-53q-51 0 -51 51z" />
<glyph unicode="m" horiz-adv-x="1991" d="M90 53v218q0 52 51 52h52v722h-52q-51 0 -51 51v220q0 51 51 51h323q51 0 51 -51v-28q93 53 178 82q64 20 127 20q51 0 88 -13q93 -29 177 -134q146 110 322 142q43 5 76 5q47 0 88 -7q78 -17 135 -73q95 -100 95 -300v-687h49q51 0 51 -52v-218q0 -51 -51 -51h-228 q-59 0 -101 41.5t-42 101.5v785q0 94 -69 115q-20 5 -36 5q-50 0 -105 -33q-65 -38 -111 -105v-859q0 -51 -51 -51h-220q-51 0 -51 51v873q0 99 -69 120q-19 5 -35 5q-48 0 -105 -35q-66 -39 -112 -106v-765q0 -60 -42 -101.5t-101 -41.5h-231q-51 0 -51 51z" />
<glyph unicode="n" horiz-adv-x="1502" d="M90 53v218q0 52 51 52h52v722h-52q-51 0 -51 51v220q0 51 51 51h323q51 0 51 -51v-26q91 49 188 77q92 25 183 25q22 0 62 -4q146 -14 246 -96q117 -104 117 -283v-686h50q51 0 51 -52v-218q0 -51 -51 -51h-228q-59 0 -101 41.5t-42 101.5v787q0 105 -97 129q-34 7 -59 7 q-52 0 -116 -20q-134 -43 -203 -137v-765q0 -59 -42 -101t-100 -42l-232 -1q-21 0 -36 15q-15 13 -15 36z" />
<glyph unicode="o" horiz-adv-x="1643" d="M90 685q0 290 214 500q215 208 517 208q301 0 517 -208q215 -209 215 -500q0 -295 -215 -502q-214 -206 -517 -206q-304 0 -517 206q-214 207 -214 502zM426 685q0 -166 118 -278q118 -114 277 -114q158 0 277 114q119 112 119 278q0 163 -119 276q-120 113 -277 113 q-158 0 -277 -113q-118 -113 -118 -276z" />
<glyph unicode="p" horiz-adv-x="1441" d="M90 -110q0 52 51 52h51v1103h-51q-51 0 -51 51v220q0 51 51 51h321q51 0 51 -51v-13q157 90 322 90h24q158 -11 281 -107q110 -90 164 -231q47 -122 47 -270v-23q-3 -105 -26 -201q-36 -138 -104 -237q-103 -149 -276 -230q-189 -92 -432 -94v-240q0 -59 -42.5 -101 t-101.5 -42h-228q-51 0 -51 51v222zM513 321q122 7 223 39q85 27 139 70q97 69 131 190q17 58 17 133q0 21 -1 30q-7 145 -89 215q-62 51 -141 51q-47 0 -99 -18q-112 -36 -180 -136v-574z" />
<glyph unicode="q" horiz-adv-x="1444" d="M90 579v24q4 176 66 316q55 128 163 226q98 89 235 143q175 67 382 75q82 3 166 3h43q39 0 78.5 -0.5t79.5 -0.5q51 0 51 -52v-220q0 -51 -51 -51h-53v-1103h53q51 0 51 -51v-220q0 -51 -51 -51h-231q-60 0 -102 42t-42 101v302q-159 -90 -316 -90q-8 0 -15.5 0.5 t-14.5 0.5q-193 13 -320 138q-101 100 -145 255q-27 103 -27 213zM417 610q0 -8 0.5 -15t0.5 -13q6 -108 51 -173q43 -62 111 -81q33 -11 74 -11q50 0 94 15q111 36 180 138v572q-163 -11 -266 -53q-140 -58 -198 -169q-47 -90 -47 -210z" />
<glyph unicode="r" horiz-adv-x="1197" d="M90 53v218q0 52 51 52h54v722h-54q-51 0 -51 51v220q0 51 51 51h324q51 0 51 -51v-25q152 86 325 99q27 3 51 3q119 0 215 -44l-176 -304q-42 24 -99 24q-24 0 -55 -5q-71 -12 -147 -52q-72 -42 -114 -100v-767q0 -60 -42 -101.5t-101 -41.5h-232q-51 0 -51 51z" />
<glyph unicode="s" horiz-adv-x="1227" d="M107 168q0 14 11 31l120 184q11 17 33 22q5 1 10 1q14 0 28 -9q86 -58 179 -89q75 -23 142 -23q37 0 64 5q35 4 68 25q31 19 31 64q-2 42 -53 78q-55 37 -85 54q-74 42 -147 78q-36 18 -73.5 38t-73.5 41q-85 47 -143 116q-76 90 -76 201v16q4 108 55 186q50 78 131 130 q69 43 150 60q68 16 143 16q95 0 198 -24q72 -18 146 -48q52 -21 100 -43q29 -15 29 -46v-202q0 -50 -51 -50h-215q-51 0 -51 50v38q-47 19 -114 27q-9 1 -28 1q-50 0 -102 -19q-33 -12 -48 -39q-5 -10 -5 -19q0 -19 17 -37q44 -53 227 -138q185 -91 288 -183 q125 -116 125 -277q0 -7 -0.5 -14.5t-0.5 -14.5q-10 -134 -85 -223q-93 -110 -261 -139q-69 -15 -154 -15q-87 0 -162 15q-177 28 -340 135q-27 17 -27 40z" />
<glyph unicode="t" horiz-adv-x="1044" d="M90 1113v203q0 51 51 51h53v331q0 52 51 52h220q51 0 51 -52v-331h147q51 0 51 -51v-203q0 -51 -51 -51h-147v-698q1 -58 24 -83q19 -21 51 -21q9 0 13 1q38 4 82 26q41 19 80 47q3 3 7 5t7 5q14 11 32 11q5 0 9 -1q23 -5 34 -25l79 -139q8 -14 8 -27q0 -20 -18 -36 q-80 -74 -167 -110q-104 -40 -197 -40q-132 0 -219 54q-74 46 -106 122q-41 84 -41 211v698h-53q-51 0 -51 51z" />
<glyph unicode="u" horiz-adv-x="1503" d="M90 1096v220q0 51 51 51h228q59 0 101 -42t42 -102v-782q0 -85 64 -120q40 -23 96 -23q59 0 131 27q122 43 184 132v766q0 60 42 102t102 42h231q51 0 51 -51v-220q0 -51 -51 -51h-54v-724h54q51 0 51 -52v-268h-375q-51 0 -51 51v26q-116 -67 -232 -85q-75 -16 -146 -16 q-97 0 -179 28q-119 42 -180 135q-60 91 -60 218v687h-49q-51 0 -51 51z" />
<glyph unicode="v" horiz-adv-x="1334" d="M90 1096v220q0 51 51 51h160q106 0 136 -100l225 -711l233 712q31 99 136 99h162q51 0 51 -51v-220q0 -51 -51 -51h-39l-335 -1008q-14 -35 -49 -35h-223q-39 0 -49 35l-319 1008h-38q-51 0 -51 51z" />
<glyph unicode="w" horiz-adv-x="1894" d="M90 1096v220q0 51 51 51h166q109 0 138 -107l160 -608l179 677q10 38 49 38h227q39 0 50 -38l178 -676l159 607q28 107 139 107h166q52 0 52 -51v-220q0 -51 -52 -51h-36l-266 -1005q-10 -38 -50 -38h-226q-40 0 -49 38l-178 674l-178 -672q-10 -38 -49 -38l-227 -2 q-41 0 -50 38l-265 1005h-37q-51 0 -51 51z" />
<glyph unicode="x" horiz-adv-x="1388" d="M97 53q0 14 9 28l399 604l-239 360h-48q-51 0 -51 51v220q0 51 51 51h135q78 0 120 -65l220 -332l249 374q13 23 42 23h254q32 0 45 -27q7 -13 7 -25q0 -14 -9 -28l-400 -602l240 -362h46q52 0 52 -52v-218q0 -51 -52 -51h-134q-78 0 -120 64l-220 334l-247 -376 q-16 -22 -43 -22h-254q-32 0 -45 27q-7 12 -7 24z" />
<glyph unicode="y" horiz-adv-x="1532" d="M90 1096v220q0 51 51 51h227q59 0 101.5 -42t42.5 -102v-675q0 -46 4 -86q3 -45 37 -66q28 -20 76 -20q26 0 50 4q98 18 192 77q74 45 111 91q38 39 38 67v608q0 60 42 102t102 42h227q51 0 51 -51v-220q0 -51 -51 -51h-49v-1131q-7 -129 -109 -240q-93 -96 -247 -145 q-120 -38 -259 -38q-46 0 -70 2q-185 12 -333 89q-28 17 -28 46v200q0 29 25 44q13 8 27 8q12 0 24 -6q44 -24 94 -42q89 -29 167 -38q32 -4 71 -4q109 0 199 36q117 47 117 115v261q-92 -75 -224 -111q-95 -27 -185 -27q-30 0 -58 3q-147 10 -243 87q-93 75 -115 206 q-5 41 -5 81v604h-49q-51 0 -51 51z" />
<glyph unicode="z" horiz-adv-x="1195" d="M90 1027v196q0 60 42 102t102 42h813q28 0 44 -25q7 -13 7 -26q0 -12 -6 -24l-505 -969h404q51 0 51 -52v-218q0 -51 -51 -51h-840q-29 0 -44 24q-8 13 -8 27q0 11 6 23l504 969h-204v-18q0 -51 -51 -51h-212q-52 0 -52 51z" />
<glyph unicode="{" />
<glyph unicode="|" />
<glyph unicode="}" />
<glyph unicode="~" />
<glyph unicode="&#xa1;" />
<glyph unicode="&#xa2;" />
<glyph unicode="&#xa3;" />
<glyph unicode="&#xa4;" />
<glyph unicode="&#xa5;" />
<glyph unicode="&#xa6;" />
<glyph unicode="&#xa7;" />
<glyph unicode="&#xa8;" />
<glyph unicode="&#xa9;" />
<glyph unicode="&#xaa;" />
<glyph unicode="&#xab;" />
<glyph unicode="&#xac;" />
<glyph unicode="&#xad;" horiz-adv-x="1048" d="M90 575v127q0 59 42 101t102 42h673q51 0 51 -51v-127q0 -60 -42 -102t-101 -42h-674q-51 0 -51 52z" />
<glyph unicode="&#xae;" />
<glyph unicode="&#xaf;" />
<glyph unicode="&#xb0;" />
<glyph unicode="&#xb1;" />
<glyph unicode="&#xb2;" />
<glyph unicode="&#xb3;" />
<glyph unicode="&#xb4;" />
<glyph unicode="&#xb5;" />
<glyph unicode="&#xb6;" />
<glyph unicode="&#xb7;" />
<glyph unicode="&#xb8;" />
<glyph unicode="&#xb9;" />
<glyph unicode="&#xba;" />
<glyph unicode="&#xbb;" />
<glyph unicode="&#xbc;" />
<glyph unicode="&#xbd;" />
<glyph unicode="&#xbe;" />
<glyph unicode="&#xbf;" />
<glyph unicode="&#xc0;" />
<glyph unicode="&#xc1;" />
<glyph unicode="&#xc2;" />
<glyph unicode="&#xc3;" />
<glyph unicode="&#xc4;" />
<glyph unicode="&#xc5;" />
<glyph unicode="&#xc6;" />
<glyph unicode="&#xc7;" />
<glyph unicode="&#xc8;" />
<glyph unicode="&#xc9;" />
<glyph unicode="&#xca;" />
<glyph unicode="&#xcb;" />
<glyph unicode="&#xcc;" />
<glyph unicode="&#xcd;" />
<glyph unicode="&#xce;" />
<glyph unicode="&#xcf;" />
<glyph unicode="&#xd0;" />
<glyph unicode="&#xd1;" />
<glyph unicode="&#xd2;" />
<glyph unicode="&#xd3;" />
<glyph unicode="&#xd4;" />
<glyph unicode="&#xd5;" />
<glyph unicode="&#xd6;" />
<glyph unicode="&#xd7;" />
<glyph unicode="&#xd8;" />
<glyph unicode="&#xd9;" />
<glyph unicode="&#xda;" />
<glyph unicode="&#xdb;" />
<glyph unicode="&#xdc;" />
<glyph unicode="&#xdd;" />
<glyph unicode="&#xde;" />
<glyph unicode="&#xdf;" />
<glyph unicode="&#xe0;" />
<glyph unicode="&#xe1;" />
<glyph unicode="&#xe2;" />
<glyph unicode="&#xe3;" />
<glyph unicode="&#xe4;" />
<glyph unicode="&#xe5;" />
<glyph unicode="&#xe6;" />
<glyph unicode="&#xe7;" />
<glyph unicode="&#xe8;" />
<glyph unicode="&#xe9;" />
<glyph unicode="&#xea;" />
<glyph unicode="&#xeb;" />
<glyph unicode="&#xec;" />
<glyph unicode="&#xed;" />
<glyph unicode="&#xee;" />
<glyph unicode="&#xef;" />
<glyph unicode="&#xf0;" />
<glyph unicode="&#xf1;" />
<glyph unicode="&#xf2;" />
<glyph unicode="&#xf3;" />
<glyph unicode="&#xf4;" />
<glyph unicode="&#xf5;" />
<glyph unicode="&#xf6;" />
<glyph unicode="&#xf7;" />
<glyph unicode="&#xf8;" />
<glyph unicode="&#xf9;" />
<glyph unicode="&#xfa;" />
<glyph unicode="&#xfb;" />
<glyph unicode="&#xfc;" />
<glyph unicode="&#xfd;" />
<glyph unicode="&#xfe;" />
<glyph unicode="&#xff;" />
<glyph unicode="&#x2c6;" />
<glyph unicode="&#x2dc;" />
<glyph unicode="&#x2000;" horiz-adv-x="941" />
<glyph unicode="&#x2001;" horiz-adv-x="1882" />
<glyph unicode="&#x2002;" horiz-adv-x="941" />
<glyph unicode="&#x2003;" horiz-adv-x="1882" />
<glyph unicode="&#x2004;" horiz-adv-x="627" />
<glyph unicode="&#x2005;" horiz-adv-x="470" />
<glyph unicode="&#x2006;" horiz-adv-x="313" />
<glyph unicode="&#x2007;" horiz-adv-x="313" />
<glyph unicode="&#x2008;" horiz-adv-x="235" />
<glyph unicode="&#x2009;" horiz-adv-x="376" />
<glyph unicode="&#x200a;" horiz-adv-x="104" />
<glyph unicode="&#x2010;" horiz-adv-x="1048" d="M90 575v127q0 59 42 101t102 42h673q51 0 51 -51v-127q0 -60 -42 -102t-101 -42h-674q-51 0 -51 52z" />
<glyph unicode="&#x2011;" horiz-adv-x="1048" d="M90 575v127q0 59 42 101t102 42h673q51 0 51 -51v-127q0 -60 -42 -102t-101 -42h-674q-51 0 -51 52z" />
<glyph unicode="&#x2012;" horiz-adv-x="1048" d="M90 575v127q0 59 42 101t102 42h673q51 0 51 -51v-127q0 -60 -42 -102t-101 -42h-674q-51 0 -51 52z" />
<glyph unicode="&#x2013;" />
<glyph unicode="&#x2014;" />
<glyph unicode="&#x2018;" />
<glyph unicode="&#x2019;" />
<glyph unicode="&#x201a;" />
<glyph unicode="&#x201c;" />
<glyph unicode="&#x201d;" />
<glyph unicode="&#x201e;" />
<glyph unicode="&#x2022;" />
<glyph unicode="&#x2026;" />
<glyph unicode="&#x202f;" horiz-adv-x="376" />
<glyph unicode="&#x2039;" />
<glyph unicode="&#x203a;" />
<glyph unicode="&#x205f;" horiz-adv-x="470" />
<glyph unicode="&#x20ac;" />
<glyph unicode="&#x2122;" />
<glyph unicode="&#xe000;" horiz-adv-x="1365" d="M0 0v1365h1365v-1365h-1365z" />
</font>
</defs>
</svg>
